<?xml version="1.0" encoding="utf-8"?>
<!-- Generator: Adobe Illustrator 25.2.0, SVG Export Plug-In . SVG Version: 6.00 Build 0)  -->
<svg version="1.1" id="Layer_1" xmlns="http://www.w3.org/2000/svg" xmlns:xlink="http://www.w3.org/1999/xlink" x="0px" y="0px"
	 viewBox="0 0 473.58 235.7" style="enable-background:new 0 0 473.58 235.7;" xml:space="preserve">
<style type="text/css">
	.st0{fill:#FFFFFF;}
	.st1{fill:url(#SVGID_1_);}
	.st2{fill:url(#SVGID_2_);}
	.st3{fill:url(#SVGID_3_);}
	.st4{fill:url(#SVGID_4_);}
	.st5{fill:url(#SVGID_5_);}
</style>
<text transform="matrix(1 0 0 1 -659.4282 -251.0335)" style="font-family:'GreatDayPersonalUse'; font-size:93.889px;">Abue</text>
<text transform="matrix(1 0 0 1 -493.0189 -221.7163)" style="font-family:'Montserrat-Regular'; font-size:24.1864px;">BASHAR</text>
<g>
	<g>
		<g>
			<path class="st0" d="M188.67,207.23l4.4-14.17h2.99l4.4,14.17l4.96-14.17h3.58l-6.88,19.7h-3.3l-4.14-13.5h-0.23l-4.14,13.5h-3.3
				l-6.88-19.7h3.58L188.67,207.23z"/>
			<path class="st0" d="M230.12,193.05v3.13h-10.51v5.21h9.44v2.96h-9.44v5.27h10.85v3.13h-14.17v-19.7H230.12z"/>
			<path class="st0" d="M247.57,212.75h-8.62v-19.7h7.66c1.33,0,2.48,0.16,3.45,0.48c0.97,0.32,1.69,0.75,2.16,1.3
				c0.9,1.01,1.35,2.16,1.35,3.44c0,1.54-0.49,2.69-1.47,3.44c-0.36,0.26-0.6,0.43-0.73,0.49c-0.13,0.07-0.37,0.17-0.7,0.32
				c1.22,0.26,2.19,0.81,2.92,1.65c0.72,0.84,1.09,1.87,1.09,3.11c0,1.37-0.47,2.58-1.41,3.63
				C252.15,212.14,250.25,212.75,247.57,212.75z M242.27,201.22h4.23c2.41,0,3.61-0.82,3.61-2.45c0-0.94-0.29-1.62-0.87-2.03
				s-1.48-0.62-2.71-0.62h-4.25V201.22z M242.27,209.68h5.21c1.22,0,2.16-0.19,2.8-0.58c0.65-0.38,0.97-1.11,0.97-2.18
				c0-1.75-1.4-2.62-4.2-2.62h-4.79V209.68z"/>
		</g>
		<g>
			<path class="st0" d="M288.37,195.63c1.9,1.72,2.85,4.11,2.85,7.17s-0.92,5.49-2.76,7.27c-1.84,1.78-4.66,2.68-8.45,2.68h-6.54
				v-19.7h6.76C283.76,193.05,286.47,193.91,288.37,195.63z M287.86,202.89c0-4.51-2.58-6.76-7.75-6.76h-3.33v13.5h3.69
				c2.39,0,4.21-0.57,5.48-1.7C287.23,206.78,287.86,205.1,287.86,202.89z"/>
			<path class="st0" d="M313.56,193.05v3.13h-10.51v5.21h9.44v2.96h-9.44v5.27h10.85v3.13h-14.17v-19.7H313.56z"/>
			<path class="st0" d="M328.34,195.64c-0.97,0-1.76,0.2-2.38,0.59c-0.62,0.39-0.93,0.99-0.93,1.79c0,0.8,0.31,1.41,0.93,1.83
				c0.62,0.42,1.94,0.88,3.96,1.37c2.02,0.49,3.54,1.17,4.57,2.06c1.02,0.88,1.54,2.18,1.54,3.9c0,1.72-0.65,3.11-1.95,4.19
				s-3,1.61-5.1,1.61c-3.08,0-5.82-1.06-8.2-3.18l2.08-2.51c1.99,1.73,4.06,2.59,6.2,2.59c1.07,0,1.92-0.23,2.55-0.69
				c0.63-0.46,0.94-1.07,0.94-1.83c0-0.76-0.3-1.35-0.89-1.78c-0.59-0.42-1.61-0.81-3.06-1.16c-1.45-0.35-2.55-0.67-3.3-0.96
				c-0.75-0.29-1.42-0.67-2-1.14c-1.16-0.88-1.75-2.24-1.75-4.06s0.66-3.23,1.99-4.21c1.32-0.99,2.96-1.48,4.92-1.48
				c1.26,0,2.51,0.21,3.75,0.62s2.31,1,3.21,1.75l-1.78,2.51c-0.58-0.53-1.37-0.96-2.37-1.3
				C330.29,195.81,329.31,195.64,328.34,195.64z"/>
			<path class="st0" d="M344.36,193.05h3.33v19.7h-3.33V193.05z"/>
			<path class="st0" d="M374.34,201.84v8.05c-1.85,2.06-4.51,3.08-7.98,3.08c-2.91,0-5.35-0.96-7.31-2.87
				c-1.96-1.92-2.94-4.33-2.94-7.26c0-2.94,0.99-5.38,3-7.33c1.99-1.96,4.42-2.94,7.25-2.94c2.84,0,5.19,0.83,7.08,2.49l-1.78,2.53
				c-0.77-0.66-1.55-1.11-2.32-1.38c-0.79-0.25-1.68-0.37-2.72-0.37c-1.99,0-3.66,0.63-5.02,1.93c-1.34,1.28-2.02,2.97-2.02,5.07
				c0,2.09,0.65,3.77,1.98,5.04c1.31,1.27,2.91,1.9,4.78,1.9c1.85,0,3.43-0.4,4.68-1.21v-3.42h-5.78v-3.32H374.34z"/>
			<path class="st0" d="M397.71,193.05h3.33v19.7h-3.61l-11.16-14.37v14.37h-3.33v-19.7h3.33l11.44,14.71V193.05z"/>
			<path class="st0" d="M424.56,193.05v3.13h-10.51v5.21h9.44v2.96h-9.44v5.27h10.85v3.13h-14.17v-19.7H424.56z"/>
			<path class="st0" d="M449.1,199.45c0,3.25-1.42,5.3-4.26,6.14l5.16,7.16h-4.23l-4.71-6.62h-4.37v6.62h-3.33v-19.7h7.33
				c3.01,0,5.16,0.51,6.45,1.52C448.45,195.59,449.1,197.21,449.1,199.45z M444.68,202.24c0.68-0.58,1.01-1.52,1.01-2.8
				s-0.35-2.17-1.04-2.65c-0.7-0.48-1.94-0.72-3.72-0.72h-4.23v7.05h4.14C442.73,203.11,444,202.82,444.68,202.24z"/>
		</g>
	</g>
	<g>
		<linearGradient id="SVGID_1_" gradientUnits="userSpaceOnUse" x1="30.943" y1="52.9566" x2="478.9148" y2="295.1414">
			<stop  offset="0" style="stop-color:#0ECAE5"/>
			<stop  offset="1" style="stop-color:#E611F7"/>
		</linearGradient>
		<path class="st1" d="M22.69,124.57c-2.81-4.16-4.64-8.92-5.51-14.29c-0.87-5.37-0.92-10.47-0.14-15.31
			c1.06-6.77,3.46-12.92,7.18-18.43c3.72-5.51,8.2-10.3,13.42-14.37c1.93-1.55,3.87-3.1,5.8-4.64c1.93-1.55,3.92-3,5.95-4.35
			c13.06-8.61,27.28-15.53,42.67-20.75c15.38-5.22,31.15-8.95,47.31-11.17c9.38-1.35,18.82-2.2,28.3-2.54
			c9.48-0.34,19.06-0.07,28.73,0.8c4.26,0.39,9.17,1.09,14.73,2.1c5.56,1.02,11.03,2.49,16.4,4.43c5.37,1.94,10.3,4.45,14.8,7.55
			c4.5,3.1,7.86,6.92,10.09,11.46c2.71,5.71,4.09,11.1,4.14,16.18c0.05,5.08-0.92,9.92-2.9,14.51c-1.98,4.6-4.72,8.92-8.2,12.99
			s-7.35,7.84-11.61,11.32c-5.71,4.64-11.71,8.83-17.99,12.55c-6.29,3.73-13.06,7.14-20.32,10.23c-1.36,0.58-2.93,1.26-4.72,2.03
			c-1.79,0.78-3.65,1.52-5.59,2.25c-1.94,0.73-3.82,1.45-5.66,2.18c-1.84,0.73-3.39,1.28-4.64,1.67c-5.9,2.23-11.83,4.33-17.78,6.31
			c-5.95,1.98-11.97,3.75-18.07,5.3c4.84,0.78,9.55,1.69,14.15,2.76c4.59,1.07,8.61,2.54,12.04,4.43c3.43,1.89,6.1,4.31,7.98,7.26
			c1.89,2.95,2.49,6.65,1.81,11.1c-0.58,4.35-2.15,8.63-4.72,12.84c-2.56,4.21-5.76,8.17-9.58,11.9c-3.82,3.72-8.1,7.09-12.84,10.09
			c-4.74,3-9.58,5.46-14.51,7.4c-6.1,2.42-12.6,4.26-19.52,5.51c-6.92,1.26-13.62,1.6-20.1,1.02c-4.84-0.39-9.14-1.38-12.92-2.97
			c-3.77-1.6-6.39-3.7-7.84-6.31c-1.45-2.61-1.45-5.68,0-9.22c1.45-3.53,5.03-7.43,10.74-11.68c3.1-2.32,6.6-4.35,10.52-6.1
			c3.92-1.74,7.69-3.22,11.32-4.43c3.63-1.21,6.82-2.2,9.58-2.98c2.76-0.77,4.57-1.31,5.44-1.6l15.24,4.06
			c-1.36,0.48-3.87,1.28-7.55,2.39c-3.68,1.11-7.76,2.39-12.26,3.85c-4.5,1.45-8.98,3-13.42,4.64c-4.45,1.64-8.13,3.34-11.03,5.08
			c-4.06,2.42-6.92,4.81-8.56,7.18c-1.65,2.37-1.86,4.43-0.65,6.17c1.21,1.74,3.92,3.07,8.13,3.99c4.21,0.92,10.18,1.09,17.92,0.51
			c5.13-0.39,10.62-1.57,16.47-3.56c5.85-1.98,11.49-4.69,16.91-8.13c5.42-3.44,10.38-7.55,14.88-12.34
			c4.5-4.79,7.91-10.18,10.23-16.18c0.77-2.51,0.77-4.72,0-6.6c-0.78-1.89-2.03-3.53-3.77-4.93c-1.74-1.4-3.85-2.59-6.31-3.56
			c-2.47-0.97-4.96-1.76-7.47-2.39c-2.52-0.63-4.96-1.11-7.33-1.45c-2.37-0.34-4.33-0.6-5.88-0.8c-1.07-0.1-2.27-0.19-3.63-0.29
			c-1.36-0.1-2.66-0.31-3.92-0.65c-1.26-0.34-2.37-0.87-3.34-1.6c-0.97-0.73-1.55-1.81-1.74-3.26c0-1.45,0.7-2.66,2.1-3.63
			c1.4-0.97,3.07-1.81,5.01-2.54c1.93-0.73,3.87-1.33,5.8-1.81c1.93-0.48,3.43-0.92,4.5-1.31c10.35-3.19,20.63-6.53,30.84-10.01
			c10.21-3.48,20.29-7.74,30.26-12.77c2.9-1.45,6.04-3.14,9.43-5.08c3.39-1.93,6.8-4.09,10.23-6.46c3.43-2.37,6.77-4.93,10.01-7.69
			c3.24-2.76,6.12-5.68,8.63-8.78c2.51-3.1,4.57-6.41,6.17-9.94c1.6-3.53,2.44-7.23,2.54-11.1c0.19-2.61,0.07-5.01-0.36-7.18
			c-0.44-2.18-1.38-4.52-2.83-7.04c-1.94-3.58-4.67-6.6-8.2-9.07c-3.53-2.47-7.14-4.43-10.81-5.88c-6.29-2.51-13.09-4.38-20.39-5.59
			c-7.31-1.21-14.75-1.91-22.35-2.1c-7.6-0.19-15.19,0.02-22.78,0.65c-7.6,0.63-14.78,1.43-21.55,2.39
			c-7.74,1.16-15.46,2.64-23.15,4.43c-7.69,1.79-15.24,3.94-22.64,6.46c-7.4,2.52-14.51,5.39-21.33,8.63
			c-6.82,3.24-13.18,6.8-19.08,10.67c-4.16,2.81-8.22,6-12.19,9.58c-3.97,3.58-7.38,7.5-10.23,11.75
			c-2.85,4.26-4.91,8.85-6.17,13.79c-1.26,4.93-1.31,10.11-0.14,15.53c0.29,1.07,0.77,2.52,1.45,4.35c0.68,1.84,1.45,3.75,2.32,5.73
			c0.87,1.98,1.69,3.9,2.47,5.73c0.77,1.84,1.35,3.24,1.74,4.21L22.69,124.57z M175.79,76.97c-2.61,1.55-5.88,3.36-9.8,5.44
			c-3.92,2.08-8.2,4.4-12.84,6.97c-4.64,2.56-9.51,5.39-14.58,8.49c-5.08,3.1-10.16,6.41-15.24,9.94
			c-5.08,3.53-10.01,7.28-14.8,11.25c-4.79,3.97-9.17,8.13-13.13,12.48c-2.71,2.9-5.2,5.93-7.47,9.07c-2.27,3.14-3.8,6.7-4.57,10.67
			c-0.78,3.68-0.56,7.6,0.65,11.75c1.21,4.16,3.8,8.51,7.76,13.06l-11.17-2.61c-2.81-3.19-4.67-6.48-5.59-9.87
			c-0.92-3.39-1.14-6.82-0.65-10.3c0.48-3.48,1.6-6.97,3.34-10.45c1.74-3.48,3.97-6.92,6.68-10.3c3.97-5.03,8.66-9.87,14.08-14.51
			c5.42-4.64,10.91-8.97,16.47-12.99c5.56-4.01,10.88-7.64,15.96-10.88c5.08-3.24,9.31-5.88,12.7-7.91c2.13-1.35,3.8-2.39,5.01-3.12
			c1.21-0.73,2.32-1.38,3.34-1.96c1.02-0.58,2.05-1.14,3.12-1.67c1.06-0.53,2.56-1.23,4.5-2.1L175.79,76.97z"/>
		<linearGradient id="SVGID_2_" gradientUnits="userSpaceOnUse" x1="47.8112" y1="21.7554" x2="495.783" y2="263.9402">
			<stop  offset="0" style="stop-color:#0ECAE5"/>
			<stop  offset="1" style="stop-color:#E611F7"/>
		</linearGradient>
		<path class="st2" d="M250.6,153.73c2.32-1.84,4.28-3.39,5.88-4.64c1.6-1.26,3.05-2.47,4.35-3.63c1.31-1.16,2.59-2.37,3.85-3.63
			c1.26-1.26,2.8-2.76,4.64-4.5c1.84-1.93,3.68-4.18,5.51-6.75c1.84-2.56,3.92-5.01,6.24-7.33c0.87-0.87,1.84-1.79,2.9-2.76
			c1.06-0.97,2.13-1.81,3.19-2.54c1.06-0.73,2.1-1.23,3.12-1.52c1.02-0.29,1.86-0.14,2.54,0.44c0.77,0.49,0.97,1.81,0.58,3.99
			c-0.39,2.18-2.08,4.86-5.08,8.05c-2.71,3-4.81,5.22-6.31,6.68c-1.5,1.45-2.64,2.56-3.41,3.34c-0.78,0.78-1.23,1.38-1.38,1.81
			c-0.14,0.44-0.22,1.14-0.22,2.1c0.1,0.78,0.46,1.62,1.09,2.54c0.63,0.92,1.23,1.77,1.81,2.54c1.35,2.23,2.73,4.26,4.14,6.1
			c1.4,1.84,2.1,3.92,2.1,6.24c3-2.13,5.97-4.23,8.93-6.31c2.95-2.08,5.2-3.65,6.75-4.72l0.72,6.38c-1.07,0.78-2.42,1.72-4.06,2.83
			c-1.65,1.11-3.44,2.35-5.37,3.7c-1.94,1.36-3.94,2.73-6.02,4.14c-2.08,1.4-4.09,2.68-6.02,3.85c-1.45,1.26-3.12,2.35-5.01,3.26
			c-1.89,0.92-3.82,1.55-5.8,1.89c-1.98,0.34-3.99,0.34-6.02,0s-3.92-1.09-5.66-2.25c-0.29-0.19-0.73-0.58-1.31-1.16
			c-0.58-0.58-1.07-1.28-1.45-2.1c-0.39-0.82-0.61-1.67-0.65-2.54c-0.05-0.87,0.27-1.74,0.94-2.61c0.58-0.68,1.79-0.99,3.63-0.94
			c1.84,0.05,3.53,0.99,5.08,2.83c1.26,1.65,3.05,2.37,5.37,2.18c2.32-0.19,4.3-0.97,5.95-2.32c1.06-0.97,1.72-2.03,1.96-3.19
			c0.24-1.16,0.36-2.42,0.36-3.77c0-0.97-0.27-2.03-0.8-3.19c-0.53-1.16-1.16-2.3-1.89-3.41c-0.73-1.11-1.43-2.13-2.1-3.05
			c-0.68-0.92-1.21-1.67-1.6-2.25c-0.19-0.19-0.36-0.46-0.51-0.8c-0.14-0.34-0.31-0.63-0.51-0.87c-0.19-0.24-0.49-0.34-0.87-0.29
			c-0.39,0.05-0.87,0.32-1.45,0.8c-2.61,2.13-5.03,4.19-7.26,6.17c-2.23,1.98-4.93,4.09-8.13,6.31L250.6,153.73z"/>
		<linearGradient id="SVGID_3_" gradientUnits="userSpaceOnUse" x1="72.5498" y1="-24.0039" x2="520.5217" y2="218.1808">
			<stop  offset="0" style="stop-color:#0ECAE5"/>
			<stop  offset="1" style="stop-color:#E611F7"/>
		</linearGradient>
		<path class="st3" d="M282.67,175.07c6.19-9.09,12.7-18.62,19.52-28.59c6.82-9.96,13.76-20.03,20.82-30.18
			c7.06-10.16,14.13-20.29,21.19-30.4c7.06-10.11,13.98-19.86,20.75-29.24l10.59-2.32c-5.71,7.93-11.63,16.21-17.78,24.82
			c-6.14,8.61-12.29,17.34-18.43,26.19c-6.14,8.85-12.26,17.7-18.36,26.56c-6.1,8.85-11.95,17.49-17.56,25.9
			c2.03-2.13,4.67-4.74,7.91-7.84c3.24-3.1,6.6-6.24,10.09-9.43c3.48-3.19,6.84-6.17,10.09-8.93c3.24-2.76,5.97-4.81,8.2-6.17
			c1.64-0.97,3.26-1.62,4.86-1.96c1.6-0.34,2.93-0.29,3.99,0.14c1.06,0.44,1.76,1.36,2.1,2.76c0.34,1.4,0.07,3.31-0.8,5.73
			c-1.45,2.81-3.29,5.78-5.52,8.93c-2.23,3.14-4.43,6.22-6.6,9.22c-2.18,3-4.14,5.88-5.88,8.63c-1.74,2.76-2.76,5.2-3.05,7.33
			c-0.19,1.16,0.48,1.4,2.03,0.73c0.29,0,1.57-0.7,3.85-2.1c2.27-1.4,4.81-3.07,7.62-5.01c2.8-1.93,5.59-3.82,8.34-5.66
			c2.76-1.84,4.72-3.19,5.88-4.06l0.73,6.39c-1.45,1.07-3.41,2.52-5.88,4.35c-2.47,1.84-5.06,3.7-7.76,5.59
			c-2.71,1.89-5.37,3.65-7.98,5.3c-2.61,1.65-4.79,2.76-6.53,3.34c-1.45,0.29-3.07,0.22-4.86-0.22s-3.07-1.47-3.84-3.12
			c-0.29-2.61,0.29-5.61,1.74-9c1.45-3.38,3.27-6.77,5.44-10.16c2.18-3.38,4.45-6.58,6.82-9.58c2.37-3,4.28-5.51,5.73-7.55
			c0.87-1.35,1.31-2.3,1.31-2.83c0-0.53-0.43-0.46-1.31,0.22c-3.39,2.71-7.02,5.93-10.88,9.65c-3.87,3.73-7.86,7.55-11.97,11.46
			c-4.11,3.92-8.27,7.74-12.48,11.46c-4.21,3.73-8.39,6.94-12.55,9.65H282.67z"/>
		<linearGradient id="SVGID_4_" gradientUnits="userSpaceOnUse" x1="74.2052" y1="-27.066" x2="522.1771" y2="215.1188">
			<stop  offset="0" style="stop-color:#0ECAE5"/>
			<stop  offset="1" style="stop-color:#E611F7"/>
		</linearGradient>
		<path class="st4" d="M455.5,150.34c-0.77,0.48-2.15,1.53-4.14,3.12c-1.98,1.59-4.24,3.34-6.74,5.22c-2.52,1.89-5.09,3.74-7.7,5.58
			c-2.61,1.84-4.93,3.29-6.97,4.36c-1.55,0.77-2.75,1.19-3.62,1.24c-0.88,0.05-1.44-0.15-1.67-0.59c-0.25-0.43-0.22-1.11,0.06-2.02
			c0.29-0.93,0.83-1.92,1.61-2.98c1.55-2.41,3.35-4.79,5.44-7.11c2.07-2.32,4.24-4.62,6.46-6.89c2.23-2.27,4.39-4.5,6.52-6.68
			c2.13-2.16,4.07-4.37,5.81-6.6c0.19-1.07,0.26-1.89,0.22-2.46c-0.06-0.59-0.12-1.27-0.22-2.04c-0.11-0.96-0.37-1.45-0.8-1.45
			c-0.43,0-0.94,0.22-1.53,0.66c-0.57,0.43-1.21,0.96-1.89,1.59c-0.66,0.63-1.34,1.13-2.02,1.51c-1.16,0.79-2.35,1.34-3.55,1.67
			c-1.21,0.34-2.64,0.51-4.28,0.51c-1.36,0.2-2.32-0.26-2.91-1.38c-0.57-1.11-0.77-2.19-0.57-3.26c0.48-0.2,1.05-0.71,1.73-1.53
			c0.68-0.82,1.36-1.81,2.04-2.97c0.48-0.97,0.91-2.04,1.3-3.2c0.39-1.16,0.66-2.19,0.8-3.12c0.14-0.91,0.09-1.72-0.14-2.4
			c-0.25-0.66-0.71-1.11-1.39-1.3c-0.68-0.09-1.62,0.34-2.83,1.3c-1.21,0.97-2.4,2.21-3.55,3.71c-1.16,1.5-2.13,3.12-2.91,4.85
			c-0.77,1.75-1.07,3.29-0.87,4.65c-3.09,3.57-6.43,6.89-10.02,9.94c-2.31,1.97-4.7,3.84-7.09,5.72
			c-6.57,5.18-13.58,9.73-20.49,14.43c-2.12,1.45-3.82,2.61-5.07,3.48c-2.13,1.36-3.26,1.55-3.42,0.59
			c-0.14-0.97,0.25-2.47,1.16-4.5c0.93-2.04,2.16-4.33,3.71-6.89c3.86-6.4,9.09-11.73,13.85-17.47c1.55-1.85,3.31-3.62,4.58-5.69
			c1.48-2.4,3.03-7.06,0-9c-2.23-1.34-4.84-1.93-7.84-1.75c-3,0.2-6.14,1-9.43,2.4c-3.29,1.41-6.66,3.29-10.09,5.67
			c-3.43,2.36-6.69,4.99-9.8,7.9c-3.18,3.11-6.11,6.38-8.76,9.88c-2.67,3.48-4.82,6.86-6.46,10.15c-1.65,3.29-2.66,6.34-3.04,9.13
			c-0.39,2.81,0.05,5.09,1.3,6.83c1.07,1.34,2.49,2.01,4.28,1.95c1.79-0.05,3.65-0.45,5.6-1.22c1.93-0.77,3.74-1.7,5.44-2.77
			c1.68-1.07,2.92-1.89,3.69-2.46c0.96-0.68,1.9-1.44,2.83-2.26c0.93-0.82,1.92-1.67,2.98-2.53c-0.59,1.64-1.05,3.26-1.39,4.85
			c-0.34,1.61-0.39,2.95-0.14,4.07c0.25,1.11,0.87,1.87,1.89,2.26c1.02,0.39,2.53,0.19,4.58-0.59c1.73-0.57,3.94-1.67,6.6-3.26
			c2.66-1.59,5.36-3.29,8.13-5.09c8.97-5.81,17.7-12.27,25.8-19.24c0.82-0.7,1.63-1.42,2.42-2.15c1.64-1.48,3.43-3.11,5.36-4.85
			c0.48,1.93,1.59,3.12,3.34,3.56c1.75,0.43,3.86-0.12,6.38-1.67c-1.64,1.36-3.46,2.95-5.44,4.79c-1.98,1.84-3.94,3.82-5.87,5.95
			c-1.93,2.13-3.71,4.41-5.3,6.82c-1.59,2.43-2.78,4.84-3.56,7.26c-0.48,2.23-0.48,4.08,0,5.58c0.48,1.5,1.28,2.6,2.4,3.26
			c1.11,0.68,2.47,0.99,4.07,0.94c1.59-0.05,3.31-0.45,5.15-1.24c2.33-1.05,4.88-2.5,7.7-4.34c2.8-1.84,5.49-3.71,8.05-5.6
			c2.57-1.89,4.84-3.62,6.82-5.22c1.99-1.59,3.32-2.67,3.99-3.26L455.5,150.34z M379.01,152.12c-4.61,4.58-9.43,8.9-14.81,12.57
			c-1.41,0.96-2.86,1.87-4.45,2.5c-0.85,0.32-1.82,0.57-2.67,0.22c-0.94-0.42-1.44-1.51-1.44-2.55c-0.02-2.7,1.87-5.46,3.2-7.7
			c1.42-2.38,2.98-4.68,4.67-6.88c3.37-4.42,7.26-8.42,11.53-11.98c4.48-3.72,9.41-6.94,14.64-9.54c1.84-0.93,3.88-1.79,5.9-1.38
			c0.56,0.12,1.11,0.34,1.51,0.74c0.96,0.94,0.82,2.55,0.31,3.8c-0.9,2.18-2.61,3.9-4.27,5.58
			C388.41,142.33,383.82,147.36,379.01,152.12z"/>
		<linearGradient id="SVGID_5_" gradientUnits="userSpaceOnUse" x1="35.0016" y1="45.4493" x2="482.9735" y2="287.6341">
			<stop  offset="0" style="stop-color:#0ECAE5"/>
			<stop  offset="1" style="stop-color:#E611F7"/>
		</linearGradient>
		<path class="st5" d="M255.82,150.11c-1.16,0.87-2.8,2.01-4.93,3.42c-2.13,1.39-4.36,2.88-6.68,4.42c-2.32,1.55-4.54,3.04-6.68,4.5
			c-2.13,1.45-3.82,2.61-5.09,3.48c-2.12,1.36-3.26,1.55-3.4,0.59c-0.15-0.97,0.23-2.47,1.16-4.5c0.91-2.04,2.15-4.33,3.69-6.89
			c4.31-7.16,10.26-13.25,15.61-19.63c1.59-1.89,3.27-3.76,4.05-6.16c0.73-2.26,0.83-5.17-1.51-6.52c-2.26-1.32-4.96-1.74-7.55-1.58
			c-3,0.2-6.15,1-9.44,2.4c-3.28,1.41-6.65,3.29-10.08,5.67c-3.43,2.36-6.71,4.99-9.8,7.9c-3.18,3.11-6.12,6.38-8.78,9.88
			c-2.66,3.48-4.81,6.86-6.46,10.15c-1.64,3.29-2.66,6.34-3.04,9.13c-0.39,2.81,0.05,5.09,1.31,6.83c1.07,1.34,2.49,2.01,4.28,1.95
			c1.78-0.05,3.65-0.45,5.58-1.22s3.76-1.7,5.44-2.77c1.7-1.07,2.92-1.89,3.71-2.46c0.96-0.68,1.9-1.44,2.83-2.26
			c0.91-0.82,1.9-1.67,2.97-2.53c-0.57,1.64-1.04,3.26-1.38,4.85c-0.34,1.61-0.39,2.95-0.14,4.07c0.23,1.11,0.87,1.87,1.89,2.26
			c1,0.39,2.53,0.19,4.56-0.59c1.75-0.57,3.94-1.67,6.62-3.26c2.66-1.59,5.36-3.29,8.11-5.09c2.77-1.78,5.39-3.57,7.91-5.36
			c2.52-1.79,4.5-3.21,5.95-4.28L255.82,150.11z M226.95,152.13c-1.75,1.75-3.49,3.38-5.22,4.95c-1.75,1.55-3.54,3.04-5.38,4.5
			c-1.84,1.44-3.52,2.67-5.07,3.69c-1.55,1.02-2.95,1.72-4.22,2.1c-1.25,0.39-2.16,0.25-2.75-0.43c-0.97-1.07-0.97-2.75,0-5.09
			c0.97-2.32,2.3-4.73,3.99-7.25c1.7-2.52,3.43-4.84,5.22-6.97c1.79-2.12,3.03-3.52,3.71-4.2c1.93-1.75,3.79-3.38,5.58-4.93
			c1.79-1.55,3.71-3.04,5.73-4.5c1.36-0.97,2.7-1.84,4.07-2.61c1.34-0.77,2.8-1.55,4.36-2.33c2.32-1.16,4.17-1.73,5.58-1.73
			c1.41,0,2.35,0.39,2.83,1.16c0.48,0.77,0.48,1.84,0,3.18c-1.08,3.02-3.58,5.26-5.81,7.45
			C235.25,143.35,231.22,147.86,226.95,152.13z"/>
	</g>
</g>
</svg>
